<?xml version="1.0" encoding="UTF-8"?>
<svg id="Camada_2" data-name="Camada 2" xmlns="http://www.w3.org/2000/svg" viewBox="0 0 13.72 15">
  <defs>
    <style>
      .cls-1 {
        fill: #00c;
        stroke-width: 0px;
      }
    </style>
  </defs>
  <g id="Camada_1-2" data-name="Camada 1">
    <g>
      <path class="cls-1" d="M6.99,5.63h-.26c-.35,0-.64-.21-.65-.47l-.22-4.33C5.84.38,6.2,0,6.68,0h.36c.48,0,.84.38.82.83l-.22,4.33c-.01.26-.3.47-.65.47Z"/>
      <path class="cls-1" d="M8.75,3.85h0c-.1.51.11,1.02.54,1.31,1.08.73,1.78,1.93,1.78,3.29,0,2.22-1.89,4.02-4.22,4.02s-4.21-1.8-4.21-4.02c0-1.35.7-2.55,1.77-3.28.42-.29.64-.8.54-1.31h0c-.17-.89-1.19-1.33-1.95-.83-1.81,1.18-3,3.17-3,5.42,0,3.62,3.07,6.55,6.86,6.55s6.86-2.93,6.86-6.55c0-2.26-1.2-4.25-3.02-5.43-.76-.49-1.78-.05-1.95.83Z"/>
    </g>
  </g>
</svg>