<?xml version="1.0" encoding="UTF-8"?>
<svg id="Camada_2" data-name="Camada 2" xmlns="http://www.w3.org/2000/svg" viewBox="0 0 45.73 50">
  <defs>
    <style>
      .cls-1 {
        fill: #00c;
        stroke-width: 0px;
      }
    </style>
  </defs>
  <g id="Camada_1-2" data-name="Camada 1">
    <g>
      <path class="cls-1" d="M23.3,18.76h-.87c-1.15,0-2.12-.69-2.17-1.56l-.74-14.44C19.45,1.27,20.68,0,22.27,0h1.2c1.59,0,2.81,1.27,2.74,2.76l-.74,14.44c-.04.87-1.01,1.56-2.17,1.56Z"/>
      <path class="cls-1" d="M29.16,12.84h0c-.33,1.69.38,3.4,1.81,4.36,3.6,2.43,5.95,6.43,5.95,10.96,0,7.41-6.29,13.41-14.05,13.41s-14.05-6.01-14.05-13.41c0-4.51,2.33-8.5,5.91-10.94,1.42-.96,2.12-2.67,1.79-4.35h0c-.58-2.96-3.98-4.42-6.51-2.77C3.97,14.03,0,20.65,0,28.16c0,12.06,10.24,21.84,22.87,21.84s22.87-9.78,22.87-21.84c0-7.53-4-14.18-10.07-18.1-2.53-1.64-5.92-.18-6.5,2.78Z"/>
    </g>
  </g>
</svg>