<?xml version="1.0" encoding="UTF-8"?>
<svg id="Camada_2" data-name="Camada 2" xmlns="http://www.w3.org/2000/svg" viewBox="0 0 854.98 178.21">
  <defs>
    <style>
      .cls-1 {
        fill: #FDFFFC;
      }

      .cls-1, .cls-2 {
        stroke-width: 0px;
      }

      .cls-2 {
        fill: #00c;
      }
    </style>
  </defs>
  <g id="Camada_1-2" data-name="Camada 1">
    <g>
      <path class="cls-1" d="M100.1,26.88h-34.01L0,175.65h35.28l13.26-31.88h68.9l13.26,31.88h36.13L100.1,26.88ZM59.41,117.63l23.58-56.7,23.58,56.7h-47.16Z"/>
      <path class="cls-1" d="M253.54,178.21c-11.48,0-22.14-1.88-31.99-5.63-9.85-3.75-18.38-9.1-25.61-16.05-7.23-6.94-12.86-15.09-16.9-24.44-4.04-9.35-6.06-19.62-6.06-30.82s2.02-21.46,6.06-30.82c4.04-9.35,9.7-17.5,17-24.44,7.3-6.94,15.87-12.29,25.72-16.05,9.85-3.75,20.51-5.63,31.98-5.63,12.89,0,24.58,2.23,35.07,6.69,10.48,4.46,19.27,11.02,26.35,19.66l-22.32,20.4c-4.96-5.81-10.59-10.2-16.9-13.18-6.31-2.98-13.14-4.46-20.51-4.46-6.94,0-13.32,1.17-19.13,3.51-5.81,2.34-10.84,5.63-15.09,9.88-4.25,4.25-7.54,9.28-9.88,15.09-2.34,5.81-3.51,12.26-3.51,19.34s1.17,13.53,3.51,19.34c2.34,5.81,5.63,10.84,9.88,15.09,4.25,4.25,9.28,7.54,15.09,9.88,5.81,2.34,12.18,3.51,19.13,3.51,7.37,0,14.2-1.52,20.51-4.57,6.3-3.04,11.94-7.47,16.9-13.28l22.32,20.4c-7.09,8.64-15.87,15.23-26.35,19.77-10.49,4.53-22.25,6.8-35.28,6.8Z"/>
      <path class="cls-1" d="M368.94,175.66V54.94h-47.61v-28.05h129.64v28.05h-47.61v120.71h-34.43Z"/>
      <path class="cls-1" d="M469.46,175.66V26.89h34.64v148.77h-34.64Z"/>
      <polygon class="cls-2" points="854.98 26.88 854.98 175.65 826.5 175.65 752.54 85.39 752.54 175.65 718.54 175.65 718.54 26.88 747.02 26.88 820.98 117.15 820.98 26.88 854.98 26.88"/>
      <g>
        <path class="cls-2" d="M612.87,66.69h-3.09c-4.1,0-7.55-2.44-7.71-5.55l-2.62-51.32C599.18,4.5,603.54,0,609.19,0h4.26c5.65,0,10.01,4.5,9.74,9.82l-2.62,51.32c-.16,3.11-3.61,5.55-7.71,5.55Z"/>
        <path class="cls-2" d="M633.7,45.65h0c-1.17,5.99,1.36,12.09,6.42,15.51,12.8,8.63,21.15,22.87,21.15,38.97,0,26.34-22.36,47.69-49.95,47.69s-49.94-21.35-49.94-47.69c0-16.04,8.29-30.23,21-38.88,5.03-3.42,7.54-9.51,6.37-15.48h0c-2.06-10.53-14.13-15.71-23.13-9.86-21.49,13.97-35.6,37.53-35.6,64.22,0,42.87,36.4,77.63,81.29,77.63s81.3-34.76,81.3-77.63c0-26.79-14.21-50.4-35.82-64.36-9-5.81-21.04-.64-23.1,9.88Z"/>
      </g>
    </g>
  </g>
</svg>